# xmcd
#
# Track frame offsets:
# 150
# 15109
# 30830
# 44927
# 60764
# 77186
# 95031
# 114741
# 130580
# 148838
# 163950
# 182396
#
# Disc length: 2627 seconds
#
#
# Revision: 2
# Processed by: cddbd v1.5.1PL0 Copyright (c) Steve Scherf et al.
# Submitted via: FreeRIP 2.91 
#
DISCID=960a410c
DTITLE=Westlife - Turn Around
DYEAR=2003
DGENRE=Pop
TTITLE0=Mandy
TTITLE1=Hey Whatever
TTITLE2=Heal
TTITLE3=Obvious
TTITLE4=When A Woman Loves A Man
TTITLE5=On My Shoulder
TTITLE6=Turn Around
TTITLE7=I Dit It For You
TTITLE8=Thank You
TTITLE9=To Be With You
TTITLE10=Home
TTITLE11=What Do They Know?
EXTD=Turn Around - Nam-gi Song
EXTT0=
EXTT1=
EXTT2=
EXTT3=
EXTT4=
EXTT5=
EXTT6=
EXTT7=
EXTT8=
EXTT9=
EXTT10=
EXTT11=
PLAYORDER=
